# xmcd
#
# Track frame offsets: 
#        150
#        13749
#        28612
#        40051
#        50706
#        54549
#        65748
#        76798
#        97955
#        107360
#        114027
#        129687
#        142295
#        147898
#
# Disc length: 1976 seconds
#
# Revision: 0
# Processed by: cddbd v1.5.2PL0 Copyright (c) Steve Scherf et al.
# Submitted via: ExactAudioCopy v0.99pb3
#
DISCID=bd07b60e
DTITLE=Mack Jump - Hadda Woman
DYEAR=2001
DGENRE=Blues
TTITLE0=Hadda Woman
TTITLE1=Vastapol
TTITLE2=Dawn House Breakdown
TTITLE3=Getting Better Strut
TTITLE4=Subterranean Blues
TTITLE5=March Of The Crittendon Kings
TTITLE6=Chollie Newlin
TTITLE7=Bethie's Victory
TTITLE8=Eagle's Attitude
TTITLE9=Cold Molasses
TTITLE10=Sandy Lee
TTITLE11=Justus Justice
TTITLE12=Michael
TTITLE13=Unkown
EXTD=
EXTT0=
EXTT1=
EXTT2=
EXTT3=
EXTT4=
EXTT5=
EXTT6=
EXTT7=
EXTT8=
EXTT9=
EXTT10=
EXTT11=
EXTT12=
EXTT13=
PLAYORDER=
